/* XPM */
static char *_9efe2e9fd5946768c5d8fbf11c94656[] = {
/* columns rows colors chars-per-pixel */
"64 64 162 2 ",
"   c #ebe6ce",
".  c #1D1D1D",
"X  c #1E1E1E",
"o  c gray12",
"O  c #201C1D",
"+  c #221E1F",
"@  c #231E1F",
"#  c #251C1F",
"$  c #211F20",
"%  c #231F20",
"&  c #241F20",
"*  c #281F22",
"=  c #202020",
"-  c gray13",
";  c #222021",
":  c #232122",
">  c #222222",
",  c #242021",
"<  c #252122",
"1  c #262223",
"2  c #272223",
"3  c #252324",
"4  c #252525",
"5  c #272526",
"6  c #282627",
"7  c #2C2729",
"8  c #673B16",
"9  c #653C16",
"0  c #663D17",
"q  c #673E16",
"w  c #643C19",
"e  c #673C19",
"r  c #673E18",
"t  c #673E19",
"y  c #673D1A",
"u  c #6E451F",
"i  c #905D2E",
"p  c #8E5D31",
"a  c #8F5E32",
"s  c #8F5E35",
"d  c #925D35",
"f  c #916037",
"g  c #9D6A31",
"h  c #9D6A34",
"j  c #9D6A35",
"k  c #9E6B35",
"l  c #9F6A36",
"z  c #9E6B36",
"x  c #9E6B3E",
"c  c #AA6728",
"v  c #A9652F",
"b  c #A26B2B",
"n  c #A56A2B",
"m  c #A26A2F",
"M  c #A4692F",
"N  c #A5692F",
"B  c #A6692F",
"V  c #A56A2F",
"C  c #A8692A",
"Z  c #A16736",
"A  c #AA6630",
"S  c #AB6631",
"D  c #AB6731",
"F  c #AC6731",
"G  c #AC6732",
"H  c #A26932",
"J  c #A36B32",
"K  c #A36A33",
"L  c #A46931",
"P  c #A56A30",
"I  c #A66A30",
"U  c #A76A30",
"Y  c #A56933",
"T  c #A56A32",
"R  c #A16834",
"E  c #A26935",
"W  c #A06B36",
"Q  c #A56A34",
"!  c #A46B34",
"~  c #A76E37",
"^  c #AF6A35",
"/  c #A96F37",
"(  c #A26F3A",
")  c #B26337",
"_  c #AE793E",
"`  c #A97242",
"'  c #AD7540",
"]  c #AD7741",
"[  c #AE7741",
"{  c #AE7742",
"}  c #AE7743",
"|  c #AE7545",
" . c #AD7842",
".. c #AF7842",
"X. c #AF7843",
"o. c #B07941",
"O. c #B27C46",
"+. c #B77D4C",
"@. c #BF7B4B",
"#. c #C07B49",
"$. c #C07C48",
"%. c #C17C4A",
"&. c #C3A820",
"*. c #FFFE26",
"=. c #AC8258",
"-. c #AD8359",
";. c #AE845A",
":. c #BA8052",
">. c #BF915D",
",. c #C1935F",
"<. c #57718E",
"1. c #58718E",
"2. c #5D6F95",
"3. c #567193",
"4. c #5A7390",
"5. c #597092",
"6. c #587096",
"7. c #5E7094",
"8. c #646D98",
"9. c #656E9E",
"0. c #5A72A0",
"q. c #606DA2",
"w. c #7E9ED9",
"e. c #7B9DE4",
"r. c #779BEF",
"t. c #779CEC",
"y. c #7B9BE8",
"u. c #7D9EEA",
"i. c #769CF0",
"p. c #D5AD82",
"a. c #E3B480",
"s. c #E3B581",
"d. c #E4B581",
"f. c #E5B681",
"g. c #E4B682",
"h. c #E5B682",
"j. c #E5B783",
"k. c #E6B783",
"l. c #EBBE83",
"z. c #E9BA86",
"x. c #ECBF84",
"c. c #E7BB89",
"v. c #E7BB8A",
"b. c #E8BC8B",
"n. c #E9BD8C",
"m. c #E9C380",
"M. c #EEC281",
"N. c #EFC187",
"B. c #EBC08B",
"V. c #EFC28B",
"C. c #EBC28F",
"Z. c #ECC18C",
"A. c #EDC08D",
"S. c #EFC18D",
"D. c #EDC28D",
"F. c #EEC38E",
"G. c #EFC48F",
"H. c #ABC3F3",
"J. c #ABC2F4",
"K. c #A8C0FE",
"L. c #ADC7FE",
"P. c #A9C9FA",
/* pixels */
"                                                                                                                                ",
"                                                                                                                                ",
"                                                                                                                                ",
"                                                                                                                                ",
"                                                                                                                                ",
"                                                                                                                                ",
"                                                                                                                                ",
"                                                                                                                                ",
"                                . . 1 1 * * # # * * # # # # # # # # # # # # # # # # & & @ @ % %                                 ",
"                                . . 1 1 * & # # * * # # # # # # # # # # # # # # # # * & @ @ % %                                 ",
"                                . . @.@.:.:.| | +.+.Z Z Z R R R R Z Z R R R R R R R R R K K 1 1                                 ",
"                                . . @.@.:.:.| | +.+.Z Z Z R R R R Z Z R R R R R R R R R K K 1 1                                 ",
"                                - - %.%.e e a a s s s s s s s d d s s s s s s s s s f f ! ! @ @                                 ",
"                                - - %.%.e e a a s s s s s s s d d s s s s s s s s s f f ! ! @ @                                 ",
"                                . . #.#.e e x x =.=.=.=.=.=.=.;.;.=.=.=.=.=.=.=.i i a a K K % %                                 ",
"                                . . #.#.e e x x =.=.=.=.=.=.=.;.;.=.=.=.=.=.=.=.i i a a K K % %                                 ",
"                                . . %.%.e e _ _ V.V.C.C.C.x.x.l.l.N.N.m.m.m.g.a.K K R R K K 1 1                                 ",
"                                . . %.%.e e _ _ V.V.C.C.C.x.x.l.l.N.N.m.m.m.g.a.K K R R K K 1 1                                 ",
"                                . . A A 9 9 { { Z.Z.1.1.1.6.6.5.5.5.5.8.8.7.a.a.I I z z K K % %                                 ",
"                                . . A A 9 9 { { Z.Z.1.1.1.6.6.5.5.5.5.8.8.7.a.a.I I z z K K % %                                 ",
"                                . . c c 8 8 { { Z.Z.<.<.<.K.K.L.L.r.r.7.7.7.a.a.N N z z K K 1 1                                 ",
"                                . . c c 8 8 { { Z.Z.<.<.<.K.K.L.L.r.r.7.7.7.a.a.N N z z K K 1 1                                 ",
"                                - - G G e e o.o.Z.Z.5.5.5.w.w.y.y.e.e.0.0.7.g.a.! ! z z K K 1 1                                 ",
"                                - - G G e e o.o.Z.Z.5.5.5.w.w.y.y.e.e.0.0.7.g.a.! ! z z K K 1 1                                 ",
"                                . . c c 8 8 { { Z.Z.1.1.1.t.t.P.P.H.H.q.q.7.a.a.N N z z K K & &                                 ",
"                                . . c c 8 8 { { Z.Z.1.1.1.t.t.P.P.H.H.q.q.7.a.a.N N z z K K & &                                 ",
"                                . . A A 9 9 { { Z.Z.1.1.1.u.u.J.J.i.i.8.8.7.g.a.I I z z K K 1 1                                 ",
"                                . . A A 9 9 { { Z.Z.1.1.1.u.u.J.J.i.i.8.8.7.g.a.I I z z K K 1 1                                 ",
"                                . . A A 9 9 ....Z.Z.3.3.3.2.7.7.7.7.7.7.9.7.g.a.I I z z ! ! 1 1                                 ",
"                                . . A A 9 9 { { Z.Z.7.7.7.7.7.7.7.7.7.7.7.7.a.a.N N z z K K % %                                 ",
"                                . . A A 9 9 { { Z.Z.v.v.v.v.v.b.b.v.v.n.n.Z.a.a.N m z z K K % %                                 ",
"                                . . A A 9 9 { { Z.Z.M.M.M.Z.Z.Z.Z.Z.Z.Z.Z.Z.g.a.I K z z K K @ @                                 ",
"                                . . A A 9 9 &.&.*.*.M.M.M.Z.Z.Z.Z.Z.Z.Z.Z.Z.g.a.I I z z K K @ @                                 ",
"                                . . A A 9 9 &.&.*.*.M.M.M.Z.Z.Z.Z.Z.Z.Z.Z.Z.g.a.I I z z K K @ @                                 ",
"                                . . A A 8 8 &.&.*.*.Z.Z.Z.Z.Z.Z.Z.Z.Z.Z.Z.Z.a.a.I I z z K K @ @                                 ",
"                                . . A A 8 8 ` ` p.p.Z.Z.Z.Z.Z.Z.Z.Z.Z.Z.Z.Z.a.a.I I z z K K @ @                                 ",
"                                - - G G e e { { B.B.B.B.B.B.B.Z.Z.B.B.Z.Z.Z.a.a.I I z z ! ! 1 1                                 ",
"                                - - G G e e { { B.B.B.B.B.B.B.Z.Z.B.B.Z.Z.Z.a.a.I I z z ! ! 1 1                                 ",
"                                . . A A 9 9 { { Z.Z.Z.Z.Z.Z.Z.Z.Z.Z.Z.B.B.Z.g.a.N N z z K K % %                                 ",
"                                . . A A 9 9 { { Z.Z.Z.Z.Z.Z.Z.Z.Z.Z.Z.B.B.Z.g.a.N N z z K K % %                                 ",
"                                . . A A 9 9 ....Z.Z.Z.Z.Z.Z.Z.Z.Z.Z.Z.Z.Z.Z.a.a.I I z z K K 1 1                                 ",
"                                . . A A 9 9 ....Z.Z.Z.Z.Z.Z.Z.Z.Z.Z.Z.Z.Z.Z.a.a.I I z z K K 1 1                                 ",
"                                . . v v e 9 { { Z.Z.Z.Z.Z.Z.Z.Z.Z.Z.Z.Z.Z.Z.g.a.I I z z K K 1 1                                 ",
"                                . . v v 9 9 { { Z.Z.G.G.G.G.Z.Z.Z.Z.Z.Z.Z.Z.g.a.I I z z K K 1 1                                 ",
"                                . . A A 9 9 ....Z.Z.Z.Z.Z.Z.Z.Z.Z.Z.Z.Z.Z.Z.a.a.K I z z K K % %                                 ",
"                                . . A A 9 9 ....Z.Z.Z.Z.Z.Z.Z.Z.Z.Z.Z.Z.Z.Z.a.a.I I z z K K % %                                 ",
"                                . . A A e e ....Z.Z.Z.Z.Z.Z.Z.Z.Z.Z.Z.Z.Z.Z.g.a.I I z z ! ! . .                                 ",
"                                . . A A e e ....Z.Z.Z.Z.Z.Z.Z.Z.Z.Z.Z.Z.Z.Z.g.a.I I z z ! ! @ @                                 ",
"                                4 4 ^ ^ u u O.O.G.G.Z.Z.Z.Z.G.G.Z.Z.Z.Z.Z.Z.z.a./ / ( ( ~ ~ 7 7                                 ",
"                                4 4 ^ ^ u u O.O.G.G.Z.Z.Z.Z.G.G.Z.Z.G.G.Z.Z.z.a./ / ( ( ~ ~ 7 7                                 ",
"                                . . A A 8 8 { { >.>.>.>.>.>.>.>.>.>.>.,.,.>.>.,.m m z z K K 1 1                                 ",
"                                . . A A 8 8 { { >.>.>.>.>.>.>.>.>.>.>.,.,.>.>.,.m m z z K K 1 1                                 ",
"                                . . ) ) 9 9 C C N N N N N N N I I N N I I N N n n n g g b b @ @                                 ",
"                                . . ) ) 9 9 C C N N N N N N N I I N N I I N N n n n g g b b @ @                                 ",
"                                . . 3 3 - - 3 3 3 3 3 3 3 3 3 6 6 3 3 4 4 3 3 3 3 3 4 4 3 3 - -                                 ",
"                                . . 3 3 - - 3 3 3 3 3 3 3 3 3 6 6 3 3 4 4 3 3 3 3 3 4 4 3 3 - -                                 ",
"                                                                                                                                ",
"                                                                                                                                ",
"                                                                                                                                ",
"                                                                                                                                ",
"                                                                                                                                ",
"                                                                                                                                ",
"                                                                                                                                ",
"                                                                                                                                "
};
