/* XPM */
static char *_5119_f50a744520d2cdd795d35223da061b4a1f36a193f003d157e0bc140ead291151[] = {
/* columns rows colors chars-per-pixel */
"64 64 17 1 ",
"  c black",
". c #090A14",
"X c #391D05",
"o c #4B2A03",
"O c #7D2626",
"+ c #8B2A2A",
"@ c #952D2D",
"# c #B53737",
"$ c #C13A3A",
"% c #C94C4C",
"& c #D0BFBF",
"* c #D2C7C7",
"= c #E0D9D9",
"- c #E2DCDB",
"; c #EFEBEB",
": c #EBEDE9",
"> c #ebe6ce",
/* pixels */
">>>>>>>>>>>>>>>>>>>>>>>>>>>>>>>>>>>>>>>>>>>>>>>>>>>>>>>>>>>>>>>>",
">>>>>>>>>>>>>>>>>>>>>>>>>>>>>>>>>>>>>>>>>>>>>>>>>>>>>>>>>>>>>>>>",
">>>>>>>>>>>>>>>>>>>>>>>>>>>>>>>>>>>>>>>>>>>>>>>>>>>>>>>>>>>>>>>>",
">>>>>>>>>>>>>>>>>>>>>>>>>>>>>>>>>>>>>>>>>>>>>>>>>>>>>>>>>>>>>>>>",
">>>>>>>>>>>>>>>>>>>>>>>>>>>>>>>>>>>>>>>>>>>>>>>>>>>>>>>>>>>>>>>>",
">>>>>>>>>>>>>>>>>>>>>>>>>>>>>>>>>>>>>>>>>>>>>>>>>>>>>>>>>>>>>>>>",
">>>>>>>>>>>>>>>>>>>>>>>>>>>>>>>>>>>>>>>>>>>>>>>>>>>>>>>>>>>>>>>>",
">>>>>>>>>>>>>>>>>>>>>>>>>>>>>>>>>>>>>>>>>>>>>>>>>>>>>>>>>>>>>>>>",
">>>>>>>>>>>>>>>>>>>>>>>>>>>>>>>>>>>>>>>>>>>>>>>>>>>>>>>>>>>>>>>>",
">>>>>>>>>>>>>>>>>>>>>>>>>>>>>>>>>>>>>>>>>>>>>>>>>>>>>>>>>>>>>>>>",
">>>>>>>>>>>>>>>>>>>>>>>>>>>>>>>>>>>>>>>>>>>>>>>>>>>>>>>>>>>>>>>>",
">>>>>>>>>>>>>>>>>>>>>>>>>>>>>>>>>>>>>>>>>>>>>>>>>>>>>>>>>>>>>>>>",
">>>>>>>>>>>>>>>>>>>>>>>>>>>>>>>>>>>>>>>>>>>>>>>>>>>>>>>>>>>>>>>>",
">>>>>>>>>>>>>>>>>>>>>>>>>>>>>>>>>>>>>>>>>>>>>>>>>>>>>>>>>>>>>>>>",
">>>>>>>>>>>>>>>>>>>>>>>>>>>>>>>>>>>>>>>>>>>>>>>>>>>>>>>>>>>>>>>>",
">>>>>>>>>>>>>>>>>>>>>>>>...............>>>>>>>>>>>>>>>>>>>>>>>>>",
">>>>>>>>>>>>>>>>>>>>....;;;;----=======....>>>>>>>>>>>>>>>>>>>>>",
">>>>>>>>>>>>>>>>>>..;;;;               ====..>>>>>>>>>>>>>>>>>>>",
">>>>>>>>>>>>>>>>>.;;    XXXXXXXXXXXXXXX    ==.>>>>>>>>>>>>>>>>>>",
">>>>>>>>>>>>>>>>.;  XXXXXoooooooooooooXXXXX  =.>>>>>>>>>>>>>>>>>",
">>>>>>>>>>>>>>>>..XXXXXXooXXXXXXXXXXXXoXXXXXX..>>>>>>>>>>>>>>>>>",
">>>>>>>>>>>>>>>>.:..XXXXXoooooooooooooXXXXX..*.>>>>>>>>>>>>>>>>>",
">>>>>>>>>>>>>>>>. ;;....XXXXXXXXXXXXXXX....== .>>>>>>>>>>>>>>>>>",
">>>>>>>>>>>>>>>>.%  ;;;;...............====  O.>>>>>>>>>>>>>>>>>",
">>>>>>>>>>>>>>>>.%%$    ===============    ++O.>>>>>>>>>>>>>>>>>",
">>>>>>>>>>>>>>>>.%%$$@@@               @@@+++O.>>>>>>>>>>>>>>>>>",
">>>>>>>>>>>>>>>>.%%%$@@@@@@@@@@@@@@@@@@@@@+++O.>>>>>>>>>>>>>>>>>",
">>>>>>>>>>>>>>>>.%%%$$@@@@@@@@@@@@@@@@@@@@++OO.>>>>>>>>>>>>>>>>>",
">>>>>>>>>>>>>>>>.%%%$$@@@@@@@@@@@@@@@@@@@@++OO.>>>>>>>>>>>>>>>>>",
">>>>>>>>>>>>>>>>.%%%$$@@@@@@@@@@@@@@@@@@@+++OO.>>>>>>>>>>>>>>>>>",
">>>>>>>>>>>>>>>>.%%%%$$@&&@@@@@@@@@@@@@@@+++OO.>>>>>>>>>>>>>>>>>",
">>>>>>>>>>>>>>>>.%%%%$$&&@@@@@@@@@@@@@@@@+++OO.>>>>>>>>>>>>>>>>>",
">>>>>>>>>>>>>>>>.%%%&&&$@@@@@@@@@@@@@@@@@++OOO.>>>>>>>>>>>>>>>>>",
">>>>>>>>>>>>>>>>>.%&&$&$&@&@&@&@@@@@@@@@@++OO.>>>>>>>>>>>>>>>>>>",
">>>>>>>>>>>>>>>>>.%%%$&$@@&&&&@&@@@@@@@@@++OO.>>>>>>>>>>>>>>>>>>",
">>>>>>>>>>>>>>>>>.%%%%&$&@&@&@@&@@@@@@@@+++OO.>>>>>>>>>>>>>>>>>>",
">>>>>>>>>>>>>>>>>.%%%%&$&@&@&@@&@&@@@@@@+++OO.>>>>>>>>>>>>>>>>>>",
">>>>>>>>>>>>>>>>>.%%%%&$&@&@@@@&&@@@@@@@++OOO.>>>>>>>>>>>>>>>>>>",
">>>>>>>>>>>>>>>>>.%%%%&#&&@@@@@@@@@@@@@@++OOO.>>>>>>>>>>>>>>>>>>",
">>>>>>>>>>>>>>>>>.%%%%$$#@@@@@@@@@@@@@@@++OOO.>>>>>>>>>>>>>>>>>>",
">>>>>>>>>>>>>>>>>.%%%%$$#@@@@@@@@@@@@@@@++OOO.>>>>>>>>>>>>>>>>>>",
">>>>>>>>>>>>>>>>>.%&%%&$$@@@@@@@@@&@@@@+++OOO.>>>>>>>>>>>>>>>>>>",
">>>>>>>>>>>>>>>>>.%%&%%&$@@@@@@@@@&@@@@++OOOO.>>>>>>>>>>>>>>>>>>",
">>>>>>>>>>>>>>>>>.%%&%%&$@@@@@@@@@&@&@@++O&OO.>>>>>>>>>>>>>>>>>>",
">>>>>>>>>>>>>>>>>.%%&%%&$$@@@@@@@&&&@@@++O&O&.>>>>>>>>>>>>>>>>>>",
">>>>>>>>>>>>>>>>>>.%&%%&$$@@@&&&@@&@@@&&+&O&.>>>>>>>>>>>>>>>>>>>",
">>>>>>>>>>>>>>>>>>.%&&&&&&&&@&@&@@&@@&@+&+O&.>>>>>>>>>>>>>>>>>>>",
">>>>>>>>>>>>>>>>>>.%&%%&%&$@&@@&@@&@@&@+&OO&.>>>>>>>>>>>>>>>>>>>",
">>>>>>>>>>>>>>>>>>.%&&%&%&$#&@@&@@&@@&@+&OOO.>>>>>>>>>>>>>>>>>>>",
">>>>>>>>>>>>>>>>>>.%&%&&%&$#&@@&@&@&&@&&+OOO.>>>>>>>>>>>>>>>>>>>",
">>>>>>>>>>>>>>>>>>.%&%%&%$&&@@@@&@@@@@+++OOO.>>>>>>>>>>>>>>>>>>>",
">>>>>>>>>>>>>>>>>>.%&%%%%$$@@@@@@@@@@@+++OOO.>>>>>>>>>>>>>>>>>>>",
">>>>>>>>>>>>>>>>>>.%%%%%%%$@@@@@@@@@@@++OOOO.>>>>>>>>>>>>>>>>>>>",
">>>>>>>>>>>>>>>>>>.%%%%%%%$$@@@@@@@@@@++OOOO.>>>>>>>>>>>>>>>>>>>",
">>>>>>>>>>>>>>>>>>.%%%%%%%$$@@@@@@@@@@++OOOO.>>>>>>>>>>>>>>>>>>>",
">>>>>>>>>>>>>>>>>>.%%%%%%%%$$@@@@@@@@@++OOOO.>>>>>>>>>>>>>>>>>>>",
">>>>>>>>>>>>>>>>>>.%%%%%%%%$$@@@@@@@@++OOOOO.>>>>>>>>>>>>>>>>>>>",
">>>>>>>>>>>>>>>>>>>.%%%%%%%%$@@@@@@@@++OOOO.>>>>>>>>>>>>>>>>>>>>",
">>>>>>>>>>>>>>>>>>>.%%%%%%%%$$@@@@@@@++OOOO.>>>>>>>>>>>>>>>>>>>>",
">>>>>>>>>>>>>>>>>>>.%%%%%%%%$$@@@@@@@++OOOO.>>>>>>>>>>>>>>>>>>>>",
">>>>>>>>>>>>>>>>>>>.%%%%%%%%%$$@@@@@@+OOOOO.>>>>>>>>>>>>>>>>>>>>",
">>>>>>>>>>>>>>>>>>>>.%%%%%%%%$$@@@@@@+OOOO.>>>>>>>>>>>>>>>>>>>>>",
">>>>>>>>>>>>>>>>>>>>>.....................>>>>>>>>>>>>>>>>>>>>>>",
">>>>>>>>>>>>>>>>>>>>>>>>>>>>>>>>>>>>>>>>>>>>>>>>>>>>>>>>>>>>>>>>"
};
