/* XPM */
static char *_7692_895db1468cdda93007e849d48d1c5725dfd6fa11c98071344c1e5de057f5242f[] = {
/* columns rows colors chars-per-pixel */
"64 64 4 1 ",
"  c #ebe6ce",
". c #ebe6ce",
"X c #ebe6ce",
"o c #ebe6ce",
/* pixels */
"ooo...  .Xo.Xoooooo...  .Xo.Xoooooo...  .Xo.Xoooooo...  .Xo.Xooo",
"..  XXXX Xo.XX.o..  XXXX Xo.XX.o..  XXXX Xo.XX.o..  XXXX Xo.XX.o",
".  XooooX.Xo..X..  XooooX.Xo..X..  XooooX.Xo..X..  XooooX.Xo..X.",
". Xoo..ooX XoX. . Xoo..ooX XoX. . Xoo..ooX XoX. . Xoo..ooX XoX. ",
"o.oo.  .oX.  .ooo.oo.  .oX.  .ooo.oo.  .oX.  .ooo.oo.  .oX.  .oo",
"o.oo. .oX.. .oX.o.oo. .oX.. .oX.o.oo. .oX.. .oX.o.oo. .oX.. .oX.",
". Xo..  .. .oX. . Xo..  .. .oX. . Xo..  .. .oX. . Xo..  .. .oX. ",
"oo.XX...X ..oX. oo.XX...X ..oX. oo.XX...X ..oX. oo.XX...X ..oX. ",
"ooo.ooX . .X.oX.ooo.ooX . .X.oX.ooo.ooX . .X.oX.ooo.ooX . .X.oX.",
"..Xo.  .X..oX..X..Xo.  .X..oX..X..Xo.  .X..oX..X..Xo.  .X..oX..X",
"  .Xo. XoX..ooo.  .Xo. XoX..ooo.  .Xo. XoX..ooo.  .Xo. XoX..ooo.",
"  .XoX.Xo  ....   .XoX.Xo  ....   .XoX.Xo  ....   .XoX.Xo  .... ",
". .XoX.Xo.  .o. . .XoX.Xo.  .o. . .XoX.Xo.  .o. . .XoX.Xo.  .o. ",
"..XoX..XXo..o. ...XoX..XXo..o. ...XoX..XXo..o. ...XoX..XXo..o. .",
"XXXX X .XXoo. .XXXXX X .XXoo. .XXXXX X .XXoo. .XXXXX X .XXoo. .X",
"... XoX  ... .Xo... XoX  ... .Xo... XoX  ... .Xo... XoX  ... .Xo",
"ooo...  .Xo.Xoooooo...  .Xo.Xoooooo...  .Xo.Xoooooo...  .Xo.Xooo",
"..  XXXX Xo.XX.o..  XXXX Xo.XX.o..  XXXX Xo.XX.o..  XXXX Xo.XX.o",
".  XooooX.Xo..X..  XooooX.Xo..X..  XooooX.Xo..X..  XooooX.Xo..X.",
". Xoo..ooX XoX. . Xoo..ooX XoX. . Xoo..ooX XoX. . Xoo..ooX XoX. ",
"o.oo.  .oX.  .ooo.oo.  .oX.  .ooo.oo.  .oX.  .ooo.oo.  .oX.  .oo",
"o.oo. .oX.. .oX.o.oo. .oX.. .oX.o.oo. .oX.. .oX.o.oo. .oX.. .oX.",
". Xo..  .. .oX. . Xo..  .. .oX. . Xo..  .. .oX. . Xo..  .. .oX. ",
"oo.XX...X ..oX. oo.XX...X ..oX. oo.XX...X ..oX. oo.XX...X ..oX. ",
"ooo.ooX . .X.oX.ooo.ooX . .X.oX.ooo.ooX . .X.oX.ooo.ooX . .X.oX.",
"..Xo.  .X..oX..X..Xo.  .X..oX..X..Xo.  .X..oX..X..Xo.  .X..oX..X",
"  .Xo. XoX..ooo.  .Xo. XoX..ooo.  .Xo. XoX..ooo.  .Xo. XoX..ooo.",
"  .XoX.Xo  ....   .XoX.Xo  ....   .XoX.Xo  ....   .XoX.Xo  .... ",
". .XoX.Xo.  .o. . .XoX.Xo.  .o. . .XoX.Xo.  .o. . .XoX.Xo.  .o. ",
"..XoX..XXo..o. ...XoX..XXo..o. ...XoX..XXo..o. ...XoX..XXo..o. .",
"XXXX X .XXoo. .XXXXX X .XXoo. .XXXXX X .XXoo. .XXXXX X .XXoo. .X",
"... XoX  ... .Xo... XoX  ... .Xo... XoX  ... .Xo... XoX  ... .Xo",
"ooo...  .Xo.Xoooooo...  .Xo.Xoooooo...  .Xo.Xoooooo...  .Xo.Xooo",
"..  XXXX Xo.XX.o..  XXXX Xo.XX.o..  XXXX Xo.XX.o..  XXXX Xo.XX.o",
".  XooooX.Xo..X..  XooooX.Xo..X..  XooooX.Xo..X..  XooooX.Xo..X.",
". Xoo..ooX XoX. . Xoo..ooX XoX. . Xoo..ooX XoX. . Xoo..ooX XoX. ",
"o.oo.  .oX.  .ooo.oo.  .oX.  .ooo.oo.  .oX.  .ooo.oo.  .oX.  .oo",
"o.oo. .oX.. .oX.o.oo. .oX.. .oX.o.oo. .oX.. .oX.o.oo. .oX.. .oX.",
". Xo..  .. .oX. . Xo..  .. .oX. . Xo..  .. .oX. . Xo..  .. .oX. ",
"oo.XX...X ..oX. oo.XX...X ..oX. oo.XX...X ..oX. oo.XX...X ..oX. ",
"ooo.ooX . .X.oX.ooo.ooX . .X.oX.ooo.ooX . .X.oX.ooo.ooX . .X.oX.",
"..Xo.  .X..oX..X..Xo.  .X..oX..X..Xo.  .X..oX..X..Xo.  .X..oX..X",
"  .Xo. XoX..ooo.  .Xo. XoX..ooo.  .Xo. XoX..ooo.  .Xo. XoX..ooo.",
"  .XoX.Xo  ....   .XoX.Xo  ....   .XoX.Xo  ....   .XoX.Xo  .... ",
". .XoX.Xo.  .o. . .XoX.Xo.  .o. . .XoX.Xo.  .o. . .XoX.Xo.  .o. ",
"..XoX..XXo..o. ...XoX..XXo..o. ...XoX..XXo..o. ...XoX..XXo..o. .",
"XXXX X .XXoo. .XXXXX X .XXoo. .XXXXX X .XXoo. .XXXXX X .XXoo. .X",
"... XoX  ... .Xo... XoX  ... .Xo... XoX  ... .Xo... XoX  ... .Xo",
"ooo...  .Xo.Xoooooo...  .Xo.Xoooooo...  .Xo.Xoooooo...  .Xo.Xooo",
"..  XXXX Xo.XX.o..  XXXX Xo.XX.o..  XXXX Xo.XX.o..  XXXX Xo.XX.o",
".  XooooX.Xo..X..  XooooX.Xo..X..  XooooX.Xo..X..  XooooX.Xo..X.",
". Xoo..ooX XoX. . Xoo..ooX XoX. . Xoo..ooX XoX. . Xoo..ooX XoX. ",
"o.oo.  .oX.  .ooo.oo.  .oX.  .ooo.oo.  .oX.  .ooo.oo.  .oX.  .oo",
"o.oo. .oX.. .oX.o.oo. .oX.. .oX.o.oo. .oX.. .oX.o.oo. .oX.. .oX.",
". Xo..  .. .oX. . Xo..  .. .oX. . Xo..  .. .oX. . Xo..  .. .oX. ",
"oo.XX...X ..oX. oo.XX...X ..oX. oo.XX...X ..oX. oo.XX...X ..oX. ",
"ooo.ooX . .X.oX.ooo.ooX . .X.oX.ooo.ooX . .X.oX.ooo.ooX . .X.oX.",
"..Xo.  .X..oX..X..Xo.  .X..oX..X..Xo.  .X..oX..X..Xo.  .X..oX..X",
"  .Xo. XoX..ooo.  .Xo. XoX..ooo.  .Xo. XoX..ooo.  .Xo. XoX..ooo.",
"  .XoX.Xo  ....   .XoX.Xo  ....   .XoX.Xo  ....   .XoX.Xo  .... ",
". .XoX.Xo.  .o. . .XoX.Xo.  .o. . .XoX.Xo.  .o. . .XoX.Xo.  .o. ",
"..XoX..XXo..o. ...XoX..XXo..o. ...XoX..XXo..o. ...XoX..XXo..o. .",
"XXXX X .XXoo. .XXXXX X .XXoo. .XXXXX X .XXoo. .XXXXX X .XXoo. .X",
"... XoX  ... .Xo... XoX  ... .Xo... XoX  ... .Xo... XoX  ... .Xo"
};
