/* XPM */
static char *_624d456f35b410588f89ba79a406f70[] = {
/* columns rows colors chars-per-pixel */
"64 64 161 2 ",
"   c #ebe6ce",
".  c #131313",
"X  c gray8",
"o  c #151515",
"O  c #161616",
"+  c gray9",
"@  c #181818",
"#  c #191919",
"$  c #1D1D1D",
"%  c #1D1E1E",
"&  c #1D1F1F",
"*  c #1E1E1E",
"=  c gray12",
"-  c #291D15",
";  c #231A1D",
":  c #201C1D",
">  c #211D1E",
",  c #211D1F",
"<  c #251C1D",
"1  c #251C1F",
"2  c #211F20",
"3  c #202020",
"4  c gray13",
"5  c #222021",
"6  c #232122",
"7  c #222222",
"8  c #232323",
"9  c #242021",
"0  c #252324",
"q  c #262324",
"w  c gray14",
"e  c #252525",
"r  c gray15",
"t  c #272727",
"y  c #292728",
"u  c #282828",
"i  c gray18",
"p  c #3A322F",
"a  c #373737",
"s  c #3D3532",
"d  c #323836",
"f  c #32373A",
"g  c #353638",
"h  c #363B3E",
"j  c gray22",
"k  c gray23",
"l  c gray24",
"z  c #532E0B",
"x  c #572D0B",
"c  c #542F0C",
"v  c #55300C",
"b  c #55300D",
"n  c #56300D",
"m  c #56310D",
"M  c #502F14",
"N  c #663A11",
"B  c #643A13",
"V  c #673C16",
"C  c #673D17",
"Z  c #683A12",
"A  c #6A3B16",
"S  c #6A3B17",
"D  c #683D17",
"F  c #653F1D",
"G  c #6A3D18",
"H  c #6B3D18",
"J  c #693F18",
"K  c #6A3E1A",
"L  c #423A37",
"P  c #6B401A",
"I  c #6C4118",
"U  c #6E441E",
"Y  c #7E5A3B",
"T  c #3D4245",
"R  c #945C2B",
"E  c #9E6631",
"W  c #9F6732",
"Q  c #A5692B",
"!  c #A06D28",
"~  c #A16B2D",
"^  c #A5692C",
"/  c #A56B2C",
"(  c #A4682E",
")  c #A5682F",
"_  c #A06D2C",
"`  c #A26C2E",
"'  c #A16736",
"]  c #A66734",
"[  c #A86731",
"{  c #A26930",
"}  c #A16A31",
"|  c #A06B31",
" . c #A36A31",
".. c #A26932",
"X. c #A16A33",
"o. c #A06B33",
"O. c #A26B32",
"+. c #A36A33",
"@. c #A46931",
"#. c #A46B30",
"$. c #A46933",
"%. c #A56A32",
"&. c #A46B33",
"*. c #A66B33",
"=. c #A16834",
"-. c #A46B37",
";. c #A16C34",
":. c #A46D35",
">. c #A86D35",
",. c #A76E38",
"<. c #A26B3C",
"1. c #AB7237",
"2. c #A37746",
"3. c #A47847",
"4. c #A67847",
"5. c #AB7C4B",
"6. c #B77D4E",
"7. c #B67E4E",
"8. c #BB7E48",
"9. c #BA7E4A",
"0. c #BB7F4B",
"q. c #BD7D49",
"w. c #BD8653",
"e. c #BE905C",
"r. c #BF915D",
"t. c #C28F56",
"y. c #C28E5C",
"u. c #C0915D",
"i. c #C0925E",
"p. c #C1925E",
"a. c #C29460",
"s. c #C39561",
"d. c #E1B37F",
"f. c #EFE045",
"g. c #F6DD6F",
"h. c #58708C",
"j. c #5B6B90",
"k. c #779BEF",
"l. c #799AF0",
"z. c #799DF1",
"x. c #BDAE95",
"c. c #BDAD9A",
"v. c #C3B6AB",
"b. c #C2B6AC",
"n. c #C4BDB1",
"m. c #C4BDB2",
"M. c #C6BBBB",
"N. c #EBC089",
"B. c #EBC08B",
"V. c #ECC189",
"C. c #ECC288",
"Z. c #ECC18A",
"A. c #ECC18B",
"S. c #EEC48A",
"D. c #EFC58B",
"F. c #EBC28C",
"G. c #ECC18C",
"H. c #EDC28D",
"J. c #EEC38E",
"K. c #EFC48F",
"L. c #F0C590",
/* pixels */
"                                                                                                                                ",
"                                                                                                                                ",
"                                                                                                                                ",
"                                                                                                                                ",
"                                                                                                                                ",
"                                                                                                                                ",
"                                                                                                            1 1 9 9 9 9 1 1     ",
"                                                                                                            1 1 9 9 9 9 1 1     ",
"                                , , , , , , , , , , , , , , , , , , , , , , , , , 1 ; ; 1 1     1 1 , 1 1 1 Y Y ^ ] ] ] 1 1     ",
"                                , , , , , , , , , , , , , , , , , , , , , , , , , 1 ; ; 1 1     1 , , 1 1 1 Y Y ^ ] ] ] 1 1     ",
"                                , , q.q.q.6.6.6.6.6.6.6.=.W W =.=.=.=.=.-.-.-.-.' ' W W <.<.1 - ^ ` ` ^ ^ 1.1.*.*.O.O.O.1 1     ",
"                                , , q.q.q.6.6.6.6.6.6.6.=.W W =.=.=.=.=.-.-.-.-.' ' W W <.<.1 - ^ ^ ` ^ ^ 1.1.*.*.O.O.O.1 1     ",
"                                , , 0.0.O.O.F K s s s s s s s s s s s s L L L L s s p p B B B B t.t.t.y.y.y.J.J.p.r.O.O.1 1     ",
"                                , , 0.0.O.O.F K s s s s s s s s s s s s L L L L s s p p B B B B t.t.t.y.y.y.J.J.p.r.O.O.1 1     ",
"                                , , 0.0.O.O.S K j j j j j a a j j j j j l l l l j j j j v.v.5.4.C.F.F.F.F.J.J.J.r.r.O.O.1 1     ",
"                                , , 0.0.O.O.S K j j j j j a a j j j j j l l l l j j j j v.v.5.4.C.F.F.F.F.J.J.J.r.r.O.O.1 1     ",
"                                , , 0.0.O.O.K K j j j j r r 7 7 7 7 7 7 r r r r j j g g M M 5.5.C.C.C.C.j.h.x.x.p.r.;.;.1 1     ",
"                                , , 0.0.O.O.K K j j j j r r 7 7 7 7 7 7 r r r r j j g g M M 5.5.C.C.C.C.j.h.x.x.p.r.;.;.1 1     ",
"                                , , O.O.O.O.S K j j j j 7 7 7 7 7 7 7 7 r r r r j j f f m m 5.5.C.C.j.j.k.k.m.m.r.r.O.O.1 1     ",
"                                , , O.O.O.O.S K j j j j 7 7 7 7 7 7 7 7 r r r r j j f f m m 5.5.C.C.j.j.k.k.m.m.r.r.O.O.1 1     ",
"                                , , ~ ~ O.O.D K j j r r 7 7 7 7 7 7 7 7 r r r r 7 7 f f m m 5.5.C.C.k.k.k.k.m.m.r.r.O.O.1 1     ",
"                                , , ~ ~ O.O.D K j j r r 7 7 7 7 7 7 7 7 r r r r 7 7 f f m m 5.5.C.C.k.k.k.k.m.m.r.r.O.O.1 1     ",
"                                , , *.*.O.O.K K j j r r 7 7 . . . . . . r r r r 7 7 f f x x 5.5.C.C.k.k.z.k.m.m.s.r.*.*.1 1     ",
"                                , , *.*.O.O.K K j j r r 7 7 . . . . . . r r r r 7 7 f f x x 5.5.C.C.k.k.z.k.m.m.s.r.*.*.1 1     ",
"                                , , ~ ~ O.O.D K j j 7 7 o o o o o o o o o o r r 7 7 f f m m 5.5.C.C.j.j.l.k.M.m.r.r.O.O.1 1     ",
"                                , , ~ ~ O.O.D K j j 7 7 o o o o o o o o o o r r 7 7 f f m m 5.5.C.C.j.j.l.k.M.m.r.r.O.O.1 1     ",
"                                , , *.*.O.O.S K j j 7 7 o o o o o o o o o . r r 7 7 f f m m 5.5.C.C.B.C.h.h.c.x.r.r.O.O.1 1     ",
"                                , , *.*.O.O.S K j j 7 7 o o o o o o o o o . r r 7 7 f f m m 5.5.C.B.B.C.h.h.c.x.r.r.O.O.1 1     ",
"                                & & O.O.O.O.S K j j 7 7 o o o o o o o o . . r r 7 7 f f m m 5.5.C.C.C.C.J.J.J.J.p.r.O.O.1 1     ",
"                                & & O.O.O.O.S K j j 7 7 o o o o o o o o . . r r 7 7 f f m m 5.4.C.C.C.J.J.J.J.J.p.r.O.O.1 1     ",
"                                & & O.O.O.O.S K j j 7 7 @ @ o o o o o o . . r r 7 7 f f m m 5.4.C.C.C.J.J.J.g.g.f.f.O.O.1 1     ",
"                                & & O.O.O.O.S K j j 7 7 o o o o o o o o . . r r 7 7 f f c c 5.4.C.C.C.J.J.J.g.g.f.f.! ! 1 1     ",
"                                & & O.O.O.O.S K j j 7 7 o o o o o o o o . . r r 7 7 f f c c 5.4.C.C.C.J.J.J.g.g.f.f.! ! 1 1     ",
"                                & & O.O.O.O.S K j j 7 7 o o o o o o o o . . r r 7 7 f f z z 5.4.C.C.C.J.J.J.g.g.f.f.O.O.1 1     ",
"                                , , ~ ~ O.O.D K j j 7 7 o o o o o o o o . . r r 7 7 f f c c 5.4.C.C.C.J.J.J.J.J.r.r.O.O.1 1     ",
"                                , , ~ ~ O.O.D K j j 7 7 o o o o o o o o . . r r 7 7 f f c c 5.4.C.C.C.J.J.J.J.J.r.r.O.O.1 1     ",
"                                , , *.*.O.O.P K j j 7 7 @ @ @ o o o @ @ o o r r 7 7 f f m m 5.4.C.C.C.B.B.J.J.J.r.r.:.:.1 1     ",
"                                , , *.*.O.O.P K j j 7 7 @ @ @ o o o @ @ . o r r 7 7 f f m m 5.4.C.C.C.B.B.J.J.J.r.r.:.:.1 1     ",
"                                , , ~ ~ O.O.K K j j 7 7 o o o o o o o o . . r r 7 7 f f m m 5.4.C.C.C.J.J.J.J.J.r.r.*.*.1 1     ",
"                                , , ~ ~ O.O.K K j j 7 7 o o o o o o o o . . r r 7 7 f f m m 5.4.C.C.C.J.J.J.J.J.r.r.*.*.1 1     ",
"                                , , O.O.O.O.C K j j 7 7 o o o o o o o o . . r r 7 7 f f z z 5.4.C.C.C.J.J.J.J.J.r.r.O.O.1 1     ",
"                                , , O.O.O.O.C K j j 7 7 o o o o o o o o . . r r 7 7 f f z z 5.4.C.C.C.J.J.J.J.J.r.r.O.O.1 1     ",
"                                , , O.O.O.O.C K j j 7 7 o @ @ o o o o o . . r r 7 7 f f z z 5.2.C.D.D.J.J.L.L.J.r.r.O.O.1 1     ",
"                                , , O.O.O.O.C K j j 7 7 o @ @ o o o o o . . r r 7 7 f f z z 5.5.C.D.D.J.J.L.L.J.r.r.O.O.1 1     ",
"                                , , O.O.O.O.D K j j 7 7 o o o o o o o o . . r r 7 7 f f m m 5.5.C.C.C.J.J.J.J.J.r.r.O.O.1 1     ",
"                                , , O.O.O.O.D K j j 7 7 o o o o o o o o . . r r 7 7 f f m m 5.5.C.C.C.J.J.J.J.J.r.r.O.O.1 1     ",
"                                , , ` ` O.O.B K j j 7 7 . . . . o o o o . . 7 7 & & d d b.b.5.5.C.C.C.J.J.K.K.J.p.r.O.O.1 1     ",
"                                , , ` ` O.O.B K j j 7 7 . . . . . o o o . . 7 7 & & d d b.b.5.5.C.C.C.J.J.K.K.J.p.r.O.O.1 1     ",
"                                , , >.>.O.O.U K j j 7 7 & & & & & & & , , & i i u u T T I I 5.5.C.D.D.J.J.L.L.J.s.r.,.,.1 1     ",
"                                , , >.>.O.O.U K j j 7 7 & & & & & & & & , & i i u u T T I I 5.5.C.D.D.J.J.L.L.J.s.r.,.,.1 1     ",
"                                , , ~ ~ O.O.S K j j 7 7 o o o o o o o o o o r r 7 7 h h Z Z Z Z r.r.r.r.d.d.d.d.p.r.O.O.1 1     ",
"                                , , ~ ~ O.O.S K j j 7 7 o o o o o o o o o o r r 7 7 h h Z Z Z Z r.r.r.r.d.d.d.d.p.r.O.O.1 1     ",
"                                , , ^ ^ O.O.K K 7 2 2 7 7 7 7 7 7 7 7 7 y y y y 7 7 , , 1 1 1 1 R R ^ Q w.w.w.w.p.r.O.O.1 1     ",
"                                , , ^ ^ O.O.K K 7 2 2 7 7 7 7 7 7 7 7 7 y y y y 7 7 , , 1 1 1 1 R R ^ Q w.w.w.w.p.r.O.O.1 1     ",
"                                , , q q q q q q                                                 1 1 1 1 1 1 >.*.*.[ [ [ 1 1     ",
"                                , , q q q q q q                                                 1 1 1 1 1 1 >.*.*.[ [ [ 1 1     ",
"                                                                                                            1 1 1 1 1 1 1 1     ",
"                                                                                                            1 1 1 1 1 1 1 1     ",
"                                                                                                                                ",
"                                                                                                                                ",
"                                                                                                                                ",
"                                                                                                                                ",
"                                                                                                                                ",
"                                                                                                                                "
};
