/* XPM */
static char *_7241_39e3680dd53e7450f3850ccb856d79856c880efa873fa97acab61d34e8e62870[] = {
/* columns rows colors chars-per-pixel */
"64 64 31 1 ",
"  c #090A14",
". c #151515",
"X c #1B1B1B",
"o c #2A1612",
"O c #251817",
"+ c #371A17",
"@ c #3B1E18",
"# c #36211E",
"$ c #38201C",
"% c #152134",
"& c #222222",
"* c #232323",
"= c #382A28",
"- c gray20",
"; c #4C2D1F",
": c #43322F",
"> c #634500",
", c #564238",
"< c #1A2B43",
"1 c #253A5E",
"2 c #2D3E72",
"3 c #484848",
"4 c #715A42",
"5 c #F1A473",
"6 c gray69",
"7 c #FFB492",
"8 c #F3BFA8",
"9 c #E4C5B7",
"0 c #C3C3C3",
"q c #EBEDE9",
"w c #ebe6ce",
/* pixels */
"wwwwwwwwwwwwwwwwwwwwwwwwwwwwwwwwwwwwwwwwwwwwwwwwwwwwwwwwwwwwwwww",
"wwwwwwwwwwwwwwwwwwwwwwwwwwwwwwwwwwwwwwwwwwwwwwwwwwwwwwwwwwwwwwww",
"wwwwwwwwwwwwwwwwwwwwwwwwwwwwwwwwwwwwwwwwwwwwwwwwwwwwwwwwwwwwwwww",
"wwwwwwwwwwwwwwwwwwwwwwwwwwwwwwwwwwwwwwwwwwwwwwwwwwwwwwwwwwwwwwww",
"wwwwwwwwwwwwwwwwwwwwwwwwwwwwwwwwwwwwwwwwwwwwwwwwwwwwwwwwwwwwwwww",
"wwwwwwwwwwwwwwwwwwwwwwwwwwwwwwwwwwwwwwwwwwwwwwwwwwwwwwwwwwwwwwww",
"wwwwwwwwwwwwwwwwwwwwwwwwwwwwwwwwwwwwwwwwwwwwwwwwwwwwwwwwwwwwwwww",
"wwwwwwwwwwwwwwwwwwwwwwwwwwwOwwwwwwwwwwwwwwwwwwwwwwwwwwwwwwwwwwww",
"wwwwwwwwwwwwwwwwwwwwwwwwwwOwwwwwwwwwwwwwwwwwwwwwwwwwwwwwwwwwwwww",
"wwwwwwwwwwwwwwwwwwwwwwwwwO@Owwwwwwwwwwwwwwwwwwwwwwwwwwwwwwwwwwww",
"wwwwwwwwwwwwwwwwwwwwwwwwwO@@Owwwwwwwwwwwwwwwwwwwwwwwwwwwwwwwwwww",
"wwwwwwwwwwwwwwwwwwwwwwwwwO@;;OOOOOOOOOwwwwwwwwwwwwwwwwwwwwwwwwww",
"wwwwwwwwwwwwwwwwwwwwwwwOOO@;;;;;;;####OOwwwwwwwwwwwwwwwwwwwwwwww",
"wwwwwwwwwwwwwwwwwwwwOOOO@@@@@@;;;;;;@@##Owwwwwwwwwwwwwwwwwwwwwww",
"wwwwwwwwwwwwwwwwwwwO####OO$$@@@@@;;;;@@##Owwwwwwwwwwwwwwwwwwwwww",
"wwwwwwwwwwwwwwwwwwO##@@###OO$@@@@@@@;@@@##Owwwwwwwwwwwwwwwwwwwww",
"wwwwwwwwwwwwwwwwwO$@@;;@####O$@@@@@@@@@@@##Owwwwwwwwwwwwwwwwwwww",
"wwwwwwwwwwwwwwwwwO@;;;;;;;@##O@@@@@@@@;@@@##Owwwwwwwwwwwwwwwwwww",
"wwwwwwwwwwwwwwwwO@;;@;@;;;;@##O@@@;@@@;;@@@##Owwwwwwwwwwwwwwwwww",
"wwwwwwwwwwwwwwwwO$@;@;@;;@;;@##O$@;;@@@;;@@@#Owwwwwwwwwwwwwwwwww",
"wwwwwwwwwwwwwwwwO$@@@@$@;@@;;@##O$@;;@@@;;@@@#Owwwwwwwwwwwwwwwww",
"wwwwwwwwwwwwwwwwO$@@$@$@;@$@;@@#O$@@;;@@@;@@@#Owwwwwwwwwwwwwwwww",
"wwwwwwwwwwwwwwwwO$@@$@$@@@$@;;@@#O$@;;@@@;;@@#Owwwwwwwwwwwwwwwww",
"wwwwwwwwwwwwwwwwO$$@$$O$@$$@;;@@#O$@@;;@@;;@@#Owwwwwwwwwwwwwwwww",
"wwwwwwwwwwwwwwwwwO$$$$O$$$O$@;;@@#O@@;;@@@;;@#Owwwwwwwwwwwwwwwww",
"wwwwwwwwwwwwwwwwwO$$O$OO$$O$@;;@@#O$@;;@@@;;@#Owwwwwwwwwwwwwwwww",
"wwwwwwwwwwwwwwwwwwO$O$O9OO9O@;;@@#O$$@;@@@;;@#Owwwwwwwwwwwwwwwww",
"wwwwwwwwwwwwwwwwwwO$OO887>>>O@;;@#O>>$@@@@;;@#Owwwwwwwwwwwwwwwww",
"wwwwwwwwwwwwwwwwwwwO78887788O@;;@#O75>$@@@;;@#Owwwwwwwwwwwwwwwww",
"wwwwwwwwwwwwwwwwwwww5888ooo8O@;;@#O87>$@@@;;@#Owwwwwwwwwwwwwwwww",
"wwwwwwwwwwwwwwwwwwww588o==oo+O@;@#O87 $@@@;;#Owwwwwwwwwwwwwwwwww",
"wwwwwwwwwwwwwwwwwwww5887:=00+O@;@#O85 $@@@;@#Owwwwwwwwwwwwwwwwww",
"wwwwwwwwwwwwwwwwwwww5887=,q0+O@;@#O5 $@@@@@##Owwwwwwwwwwwwwwwwww",
"wwwwwwwwwwwwwwwwwwww5997=:q0+O@;@#O $@@;@@@##Owwwwwwwwwwwwwwwwww",
"wwwwwwwwwwwwwwwwwww5899844q88O@;@#O$@@@;@@###Owwwwwwwwwwwwwwwwww",
"wwwwwwwwwwwwwwwwwww5899999888O@;@#O$@@;;@####Owwwwwwwwwwwwwwwwww",
"wwwwwwwwwwwwwwwwwww5799998888O@;@#O$@;;@@###Owwwwwwwwwwwwwwwwwww",
"wwwwwwwwwwwwwwwwwwww579988888O@;@OO$@;;@@##Owwwwwwwwwwwwwwwwwwww",
"wwwwwwwwwwwwwwwwwwwww557888888O@O7O$;;@@###Owwwwwwwwwwwwwwwwwwww",
"wwwwwwwwwwwwwwwwwwwwww55557777O@O7O$;;@@###Owwwwwwwwwwwwwwwwwwww",
"wwwwwwwwwwwwwwwwwwwwwwww555555O@O5O$;;@@###Owwwwwwwwwwwwwwwwwwww",
"wwwwwwwwwwwwwwwwwwwwwwwww.8....O..O@;;@@##Owwwwwwwwwwwwwwwwwwwww",
"wwwwwwwwwwwwwwwwwwwwwwww.88.***.998O@;@@##Owwwwwwwwwwwwwwwwwwwww",
"wwwwwwwwwwwwwwwwwwwwwww.-..3-*.9998O@@;@##Owwwwwwwwwwwwwwwwwwwww",
"wwwwwwwwwwwwwwwwwwwwwww.333---.58988O@@##Owwwwwwwwwwwwwwwwwwwwww",
"wwwwwwwwwwwwwwwwwwwwwww.-3--3-.95898O@##Owwwwwwwwwwwwwwwwwwwwwww",
"wwwwwwwwwwwwwwwwwwwwwwww.333--*.5898O@#Owwwwwwwwwwwwwwwwwwwwwwww",
"wwwwwwwwwwwwwwwwwwwwwwwww*--3-**58985OOwwwwwwwwwwwwwwwwwwwwwwwww",
"wwwwwwwwwwwwwwwwwwwwwwwww.33--**58985wwwwwwwwwwwwwwwwwwwwwwwwwww",
"wwwwwwwwwwwwwwwwwwwwwwwww.---**588985wwwwwwwwwwwwwwwwwwwwwwwwwww",
"wwwwwwwwwwwwwwwwwwwwwwwww%.-***589985wwwwwwwwwwwwwwwwwwwwwwwwwww",
"wwwwwwwwwwwwwwwwwwwwwwwww%1.**.578875wwwwwwwwwwwwwwwwwwwwwwwwwww",
"wwwwwwwwwwwwwwwwwwwwwwwww%11..1<5555wwwwwwwwwwwwwwwwwwwwwwwwwwww",
"wwwwwwwwwwwwwwwwwwwwwwwww%21%21<<<%wwwwwwwwwwwwwwwwwwwwwwwwwwwww",
"wwwwwwwwwwwwwwwwwwwwwwwww%21%211<<%wwwwwwwwwwwwwwwwwwwwwwwwwwwww",
"wwwwwwwwwwwwwwwwwwwwwwwwww%2<%21<<%wwwwwwwwwwwwwwwwwwwwwwwwwwwww",
"wwwwwwwwwwwwwwwwwwwwwwwwww%1<%11<<%wwwwwwwwwwwwwwwwwwwwwwwwwwwww",
"wwwwwwwwwwwwwwwwwwwwwwwwww%1<%1<<<%wwwwwwwwwwwwwwwwwwwwwwwwwwwww",
"wwwwwwwwwwwwwwwwwwwwwwwwww%%%%%%%%%wwwwwwwwwwwwwwwwwwwwwwwwwwwww",
"wwwwwwwwwwwwwwwwwwwwwwwwww && &&&X wwwwwwwwwwwwwwwwwwwwwwwwwwwww",
"wwwwwwwwwwwwwwwwwwwwwwwww q6 q6&XX wwwwwwwwwwwwwwwwwwwwwwwwwwwww",
"wwwwwwwwwwwwwwwwwwwwwwwww          wwwwwwwwwwwwwwwwwwwwwwwwwwwww",
"wwwwwwwwwwwwwwwwwwwwwwwwwwwwwwwwwwwwwwwwwwwwwwwwwwwwwwwwwwwwwwww",
"wwwwwwwwwwwwwwwwwwwwwwwwwwwwwwwwwwwwwwwwwwwwwwwwwwwwwwwwwwwwwwww"
};
