/* XPM */
static char *_932_95535632e141ff581838cd761d0a18a2c044b5242846c66f8963e848f38b0f6b[] = {
/* columns rows colors chars-per-pixel */
"64 64 19 1 ",
"  c #090A14",
". c #151515",
"X c #2A1612",
"o c #251817",
"O c #3B1E18",
"+ c #36211E",
"@ c #38201C",
"# c #152134",
"$ c #222222",
"% c #232323",
"& c gray20",
"* c #4C2D1F",
"= c #253A5E",
"- c #2D3E72",
"; c #484848",
": c #F1A473",
"> c #FFB492",
", c #F3BFA8",
"< c #ebe6ce",
/* pixels */
"<<<<<<<<<<<<<<<<<<<<<<<<<<<<<<<<<<<<<<<<<<<<<<<<<<<<<<<<<<<<<<<<",
"<<<<<<<<<<<<<<<<<<<<<<<<<<<<<<<<<<<<<<<<<<<<<<<<<<<<<<<<<<<<<<<<",
"<<<<<<<<<<<<<<<<<<<<<<<<<<<<<<<<<<<<<<<<<<<<<<<<<<<<<<<<<<<<<<<<",
"<<<<<<<<<<<<<<<<<<<<<<<<<<<<<<<<<<<<<<<<<<<<<<<<<<<<<<<<<<<<<<<<",
"<<<<<<<<<<<<<<<<<<<<<<<<<<<<<<<<<<<<<<<<<<<<<<<<<<<<<<<<<<<<<<<<",
"<<<<<<<<<<<<<<<<<<<<<<<<<<<<<<<<<<<<<<<<<<<<<<<<<<<<<<<<<<<<<<<<",
"<<<<<<<<<<<<<<<<<<<<<<<<<<<<<<<<<<<<<<<<<<<<<<<<<<<<<<<<<<<<<<<<",
"<<<<<<<<<<<<<<<<<<<<<<<<<<<<<<oo<<<<<<<<<<<<<<<<<<<<<<<<<<<<<<<<",
"<<<<<<<<<<<<<<<<<<<<<<<<<<<<<o<<<<<<<<<<<<<<<<<<<<<<<<<<<<<<<<<<",
"<<<<<<<<<<<<<<<<<<<<<<<<<<<<oOoo<<<<<<<<<<<<<<<<<<<<<<<<<<<<<<<<",
"<<<<<<<<<<<<<<<<<<<<<<<<<<<<o*OOo<<<<<<<<<<<<<<<<<<<<<<<<<<<<<<<",
"<<<<<<<<<<<<<<<<<<<<<<<<<<<<oO*OOo<<<<<<<<<<<<<<<<<<<<<<<<<<<<<<",
"<<<<<<<<<<<<<<<<<<<<<<<<<<ooOO**OOooo<<<<<<<<<<<<<<<<<<<<<<<<<<<",
"<<<<<<<<<<<<<<<<<<<<<<<<oo++++oo++++oo<<<<<<<<<<<<<<<<<<<<<<<<<<",
"<<<<<<<<<<<<<<<<<<<<<<oo+++OOo+++OO+++oo<<<<<<<<<<<<<<<<<<<<<<<<",
"<<<<<<<<<<<<<<<<<<<<<o++++O**@OOO**O++++o<<<<<<<<<<<<<<<<<<<<<<<",
"<<<<<<<<<<<<<<<<<<<<o++O*****O*****@**O++o<<<<<<<<<<<<<<<<<<<<<<",
"<<<<<<<<<<<<<<<<<<<o++O*****O**O**O****O++o<<<<<<<<<<<<<<<<<<<<<",
"<<<<<<<<<<<<<<<<<<o++O**++*OO**OO*O**O**O++o<<<<<<<<<<<<<<<<<<<<",
"<<<<<<<<<<<<<<<<<o++O**O+*O@O***O*@**@O**O++o<<<<<<<<<<<<<<<<<<<",
"<<<<<<<<<<<<<<<<<o+OO*O+**O@O***OO@**+@O*OO+oo<<<<<<<<<<<<<<<<<<",
"<<<<<<<<<<<<<<<<o+OO**+O**O@O***OO@**O@O**OO+o<<<<<<<<<<<<<<<<<<",
"<<<<<<<<<<<<<<<<o+OO**OO**O+O***O@@**O+O**OO+o<<<<<<<<<<<<<<<<<<",
"<<<<<<<<<<<<<<<o+OO**O@O**@+O*O*O@@O*OO@O**O++o<<<<<<<<<<<<<<<<<",
"<<<<<<<<<<<<<<<o+OO**O@O**@+**O*O@+O**O@O**O++o<<<<<<<<<<<<<<<<<",
"<<<<<<<<<<<<<<<o+OO**O+O*O@+*O**O@+O**O@O**O++o<<<<<<<<<<<<<<<<<",
"<<<<<<<<<<<<<<<o+OO**OO**O@OOO**O@+O**O@O**O++o<<<<<<<<<<<<<<<<<",
"<<<<<<<<<<<<<<<o+O**O@O**O@@OO**O@+O***O+O**O+o<<<<<<<<<<<<<<<<<",
"<<<<<<<<<<<<<<<o+O**O@O**O@@O***O@+*O**O+***O+o<<<<<<<<<<<<<<<<<",
"<<<<<<<<<<<<<<<o+O**@@O**O@@O***O@+*O**O+***O+o<<<<<<<<<<<<<<<<<",
"<<<<<<<<<<<<<<<o+O*O@@O**O@@O*O*O@+*O**O+*O*O+o<<<<<<<<<<<<<<<<<",
"<<<<<<<<<<<<<<<o+O*O@****@O@O*O*O@O*O*O@+*O*O+o<<<<<<<<<<<<<<<<<",
"<<<<<<<<<<<<<<<o+O*O@*****+@O**O@+*@O*O@*@O*O+o<<<<<<<<<<<<<<<<<",
"<<<<<<<<<<<<<<<o+O*O@**O**O@O**O@+*@O*O@*@O*O+o<<<<<<<<<<<<<<<<<",
"<<<<<<<<<<<<<<<o+O*O*O*O@*O@O*O*+O*@O*O@+@O*O+o<<<<<<<<<<<<<<<<<",
"<<<<<<<<<<<<<<<o+O*O*O*O@*O@O*O*+O+@O*O@+@O*O+o<<<<<<<<<<<<<<<<<",
"<<<<<<<<<<<<<<<o+O*O@O*O@*O@O*O*+O+@O**O@@O*O+o<<<<<<<<<<<<<<<<<",
"<<<<<<<<<<<<<<<<oO*O@O**O@*@O*O@*O+@O**O@@O*Oo<<<<<<<<<<<<<<<<<<",
"<<<<<<<<<<<<<<<<<oOo@O**O@+@O**O*O+@O**O@@oOo<<<<<<<<<<<<<<<<<<<",
"<<<<<<<<<<<<<<<<<oOo+@O**O@@@O*O*O@@O*O*++oOo<<<<<<<<<<<<<<<<<<<",
"<<<<<<<<<<<<<<<<<oOo+@O**O@++O*O@+@@O*O*++oOo<<<<<<<<<<<<<<<<<<<",
"<<<<<<<<<<<<<<<<<oOo+@@O**O@+O**@+@O**O@@@oOo<<<<<<<<<<<<<<<<<<<",
"<<<<<<<<<<<<<<<<<<o<o+@O**O@+O**@+@O**O@+o<o<<<<<<<<<<<<<<<<<<<<",
"<<<<<<<<<<<<<<<<<<<<o++@O**O+O*O*+@O*O@@+o<<<<<<<<<<<<<<<<<<<<<<",
"<<<<<<<<<<<<<<<<<<<<<o++@O*O+@O@*@O**O@+o<<<<<<<<<<<<<<<<<<<<<<<",
"<<<<<<<<<<<<<<<<<<<<<<o++O*O+@O@*@O*O@+o<<<<<<<<<<<<<<<<<<<<<<<<",
"<<<<<<<<<<<<<<<<<<<<<<<o+O*O++@+*+OO@+o<<<<<<<<<<<<<<<<<<<<<<<<<",
"<<<<<<<<<<<<<<<<<<<<<<<:o+O@++++++@O+o:<<<<<<<<<<<<<<<<<<<<<<<<<",
"<<<<<<<<<<<<<<<<<<<<<<<:,oooXXXXXoooo,:<<<<<<<<<<<<<<<<<<<<<<<<<",
"<<<<<<<<<<<<<<<<<<<<<<:>,.%&ooooo&&%.,>:<<<<<<<<<<<<<<<<<<<<<<<<",
"<<<<<<<<<<<<<<<<<<<<<<:>,#.%%;&&;%%.#,>:<<<<<<<<<<<<<<<<<<<<<<<<",
"<<<<<<<<<<<<<<<<<<<<<<:>>#=.&&%%&&.=#>>:<<<<<<<<<<<<<<<<<<<<<<<<",
"<<<<<<<<<<<<<<<<<<<<<<<::#==..%%..-=#::<<<<<<<<<<<<<<<<<<<<<<<<<",
"<<<<<<<<<<<<<<<<<<<<<<<<<#=---..---=#<<<<<<<<<<<<<<<<<<<<<<<<<<<",
"<<<<<<<<<<<<<<<<<<<<<<<<<#==--##--==#<<<<<<<<<<<<<<<<<<<<<<<<<<<",
"<<<<<<<<<<<<<<<<<<<<<<<<<<#--=##=--#<<<<<<<<<<<<<<<<<<<<<<<<<<<<",
"<<<<<<<<<<<<<<<<<<<<<<<<<<#=--##--=#<<<<<<<<<<<<<<<<<<<<<<<<<<<<",
"<<<<<<<<<<<<<<<<<<<<<<<<<<#=--##--=#<<<<<<<<<<<<<<<<<<<<<<<<<<<<",
"<<<<<<<<<<<<<<<<<<<<<<<<<<##########<<<<<<<<<<<<<<<<<<<<<<<<<<<<",
"<<<<<<<<<<<<<<<<<<<<<<<<<< $$$  $$$ <<<<<<<<<<<<<<<<<<<<<<<<<<<<",
"<<<<<<<<<<<<<<<<<<<<<<<<< ....  .... <<<<<<<<<<<<<<<<<<<<<<<<<<<",
"<<<<<<<<<<<<<<<<<<<<<<<<<            <<<<<<<<<<<<<<<<<<<<<<<<<<<",
"<<<<<<<<<<<<<<<<<<<<<<<<<<<<<<<<<<<<<<<<<<<<<<<<<<<<<<<<<<<<<<<<",
"<<<<<<<<<<<<<<<<<<<<<<<<<<<<<<<<<<<<<<<<<<<<<<<<<<<<<<<<<<<<<<<<"
};
