/* XPM */
static char *_86_837668c7aa8737fc47a40c2418f187654cfcf5ed9c515943f72af77e02801327[] = {
/* columns rows colors chars-per-pixel */
"64 64 30 1 ",
"  c #090A14",
". c #151515",
"X c #1B1B1B",
"o c #2A1612",
"O c #251817",
"+ c #3B1E18",
"@ c #36211E",
"# c #38201C",
"$ c #152134",
"% c #222222",
"& c #232323",
"* c #382A28",
"= c gray20",
"- c #4C2D1F",
"; c #43322F",
": c #634500",
"> c #564238",
", c #253A5E",
"< c #2D3E72",
"1 c #484848",
"2 c #715A42",
"3 c #F1A473",
"4 c gray69",
"5 c #FFB492",
"6 c #FFB692",
"7 c #DFB1A8",
"8 c #F3BFA8",
"9 c #E4C5B7",
"0 c #EBEDE9",
"q c #ebe6ce",
/* pixels */
"qqqqqqqqqqqqqqqqqqqqqqqqqqqqqqqqqqqqqqqqqqqqqqqqqqqqqqqqqqqqqqqq",
"qqqqqqqqqqqqqqqqqqqqqqqqqqqqqqqqqqqqqqqqqqqqqqqqqqqqqqqqqqqqqqqq",
"qqqqqqqqqqqqqqqqqqqqqqqqqqqqqqqqqqqqqqqqqqqqqqqqqqqqqqqqqqqqqqqq",
"qqqqqqqqqqqqqqqqqqqqqqqqqqqqqqqqqqqqqqqqqqqqqqqqqqqqqqqqqqqqqqqq",
"qqqqqqqqqqqqqqqqqqqqqqqqqqqqqqqqqqqqqqqqqqqqqqqqqqqqqqqqqqqqqqqq",
"qqqqqqqqqqqqqqqqqqqqqqqqqqqqqqqqqqqqqqqqqqqqqqqqqqqqqqqqqqqqqqqq",
"qqqqqqqqqqqqqqqqqqqqqqqqqqqqqqqqqqqqqqqqqqqqqqqqqqqqqqqqqqqqqqqq",
"qqqqqqqqqqqqqqqqqqqqqqqqqqqqqqOOqqqqqqqqqqqqqqqqqqqqqqqqqqqqqqqq",
"qqqqqqqqqqqqqqqqqqqqqqqqqqqqqOqqqqqqqqqqqqqqqqqqqqqqqqqqqqqqqqqq",
"qqqqqqqqqqqqqqqqqqqqqqqqqqqqO+OOqqqqqqqqqqqqqqqqqqqqqqqqqqqqqqqq",
"qqqqqqqqqqqqqqqqqqqqqqqqqqqqO-++Oqqqqqqqqqqqqqqqqqqqqqqqqqqqqqqq",
"qqqqqqqqqqqqqqqqqqqqqqqqqqqqO+-++Oqqqqqqqqqqqqqqqqqqqqqqqqqqqqqq",
"qqqqqqqqqqqqqqqqqqqqqqqqqqOO++--++OOOqqqqqqqqqqqqqqqqqqqqqqqqqqq",
"qqqqqqqqqqqqqqqqqqqqqqqqOO@@@@OO@@@@OOqqqqqqqqqqqqqqqqqqqqqqqqqq",
"qqqqqqqqqqqqqqqqqqqqqqOO@@@++O@@@++@@@OOqqqqqqqqqqqqqqqqqqqqqqqq",
"qqqqqqqqqqqqqqqqqqqqqO@@@@+--#+++--+@@@@Oqqqqqqqqqqqqqqqqqqqqqqq",
"qqqqqqqqqqqqqqqqqqqqO@@+-----+-----#--+@@Oqqqqqqqqqqqqqqqqqqqqqq",
"qqqqqqqqqqqqqqqqqqqO@@+-----------+----+@@Oqqqqqqqqqqqqqqqqqqqqq",
"qqqqqqqqqqqqqqqqqqO@@+--+--+----+-+--+--+@@Oqqqqqqqqqqqqqqqqqqqq",
"qqqqqqqqqqqqqqqqqO@@+--++-++----+-#+-++--+@@Oqqqqqqqqqqqqqqqqqqq",
"qqqqqqqqqqqqqqqqqO@++-+#+-+#+---++#+-+#+-++@OOqqqqqqqqqqqqqqqqqq",
"qqqqqqqqqqqqqqqqO@++--+#+++#+---++#+++#+--++@Oqqqqqqqqqqqqqqqqqq",
"qqqqqqqqqqqqqqqqO@++--+##+###+--+###+##+--++@Oqqqqqqqqqqqqqqqqqq",
"qqqqqqqqqqqqqqqO@++--+#O#####+--######O#+--++@Oqqqqqqqqqqqqqqqqq",
"qqqqqqqqqqqqqqqO@++--+#O##O###++###O##O#+--++@Oqqqqqqqqqqqqqqqqq",
"qqqqqqqqqqqqqqqO@++--+O3OO3O##++##O3OO3O+--++@Oqqqqqqqqqqqqqqqqq",
"qqqqqqqqqqqqqqqO@++--+O6666O##++##O6666O+--++@Oqqqqqqqqqqqqqqqqq",
"qqqqqqqqqqqqqqqO@+--+O::::63OO##OO36::::O+--+@Oqqqqqqqqqqqqqqqqq",
"qqqqqqqqqqqqqqqO@+--+O35558663OO36685553O+--+@Oqqqqqqqqqqqqqqqqq",
"qqqqqqqqqqqqqqqO@+--+OOoooo88866888ooooOO+--+@Oqqqqqqqqqqqqqqqqq",
"qqqqqqqqqqqqqqqO@+-+OOooOOoo888888ooOOooOO+-+@Oqqqqqqqqqqqqqqqqq",
"qqqqqqqqqqqqqqqO@+-+Oo02;*20O9889O02*;20oO+-+@Oqqqqqqqqqqqqqqqqq",
"qqqqqqqqqqqqqqqO@+-+O302*>2099889902>*203O+-+@Oqqqqqqqqqqqqqqqqq",
"qqqqqqqqqqqqqqqO@+-+O602*;2099889902;*206O+-+@Oqqqqqqqqqqqqqqqqq",
"qqqqqqqqqqqqqqqO@+-+O60022009999990022006O+-+@Oqqqqqqqqqqqqqqqqq",
"qqqqqqqqqqqqqqqO@+-+O68000099988999000086O+-+@Oqqqqqqqqqqqqqqqqq",
"qqqqqqqqqqqqqqqO@+-+O38889999999999998883O+-+@Oqqqqqqqqqqqqqqqqq",
"qqqqqqqqqqqqqqqqO+-+OO688889999999988888OO+-+Oqqqqqqqqqqqqqqqqqq",
"qqqqqqqqqqqqqqqqqO+O@O688888897799888885O@O+Oqqqqqqqqqqqqqqqqqqq",
"qqqqqqqqqqqqqqqqqO+O@@O3688888998888853O@@O+Oqqqqqqqqqqqqqqqqqqq",
"qqqqqqqqqqqqqqqqqO+O@@@OO335888888333OO@@@O+Oqqqqqqqqqqqqqqqqqqq",
"qqqqqqqqqqqqqqqqqO+OO@@@O...333333...O+@@OO+Oqqqqqqqqqqqqqqqqqqq",
"qqqqqqqqqqqqqqqqqqOqO@@@35..XXXXXX..53+@@OqOqqqqqqqqqqqqqqqqqqqq",
"qqqqqqqqqqqqqqqqqqqqO@@368.X11==11X.863@@Oqqqqqqqqqqqqqqqqqqqqqq",
"qqqqqqqqqqqqqqqqqqqqqO@38.11==11==11.83@Oqqqqqqqqqqqqqqqqqqqqqqq",
"qqqqqqqqqqqqqqqqqqqqqqO38.==11==11==.83Oqqqqqqqqqqqqqqqqqqqqqqqq",
"qqqqqqqqqqqqqqqqqqqqqqq38.111=11=111.83qqqqqqqqqqqqqqqqqqqqqqqqq",
"qqqqqqqqqqqqqqqqqqqqqqq38&===1==1===.83qqqqqqqqqqqqqqqqqqqqqqqqq",
"qqqqqqqqqqqqqqqqqqqqqqq38.&11=11=11&.83qqqqqqqqqqqqqqqqqqqqqqqqq",
"qqqqqqqqqqqqqqqqqqqqqq358.&==1111==&.853qqqqqqqqqqqqqqqqqqqqqqqq",
"qqqqqqqqqqqqqqqqqqqqqq358$.&&1==1&&.$853qqqqqqqqqqqqqqqqqqqqqqqq",
"qqqqqqqqqqqqqqqqqqqqqq355$,.==&&==.,$553qqqqqqqqqqqqqqqqqqqqqqqq",
"qqqqqqqqqqqqqqqqqqqqqqq33$,,..&&..<,$33qqqqqqqqqqqqqqqqqqqqqqqqq",
"qqqqqqqqqqqqqqqqqqqqqqqqq$,<<<..<<<,$qqqqqqqqqqqqqqqqqqqqqqqqqqq",
"qqqqqqqqqqqqqqqqqqqqqqqqq$,,<<$$<<,,$qqqqqqqqqqqqqqqqqqqqqqqqqqq",
"qqqqqqqqqqqqqqqqqqqqqqqqqq$<<,$$,<<$qqqqqqqqqqqqqqqqqqqqqqqqqqqq",
"qqqqqqqqqqqqqqqqqqqqqqqqqq$,<<$$<<,$qqqqqqqqqqqqqqqqqqqqqqqqqqqq",
"qqqqqqqqqqqqqqqqqqqqqqqqqq$,<<$$<<,$qqqqqqqqqqqqqqqqqqqqqqqqqqqq",
"qqqqqqqqqqqqqqqqqqqqqqqqqq$$$$$$$$$$qqqqqqqqqqqqqqqqqqqqqqqqqqqq",
"qqqqqqqqqqqqqqqqqqqqqqqqqq %%%  %%% qqqqqqqqqqqqqqqqqqqqqqqqqqqq",
"qqqqqqqqqqqqqqqqqqqqqqqqq 04..  ..40 qqqqqqqqqqqqqqqqqqqqqqqqqqq",
"qqqqqqqqqqqqqqqqqqqqqqqqq            qqqqqqqqqqqqqqqqqqqqqqqqqqq",
"qqqqqqqqqqqqqqqqqqqqqqqqqqqqqqqqqqqqqqqqqqqqqqqqqqqqqqqqqqqqqqqq",
"qqqqqqqqqqqqqqqqqqqqqqqqqqqqqqqqqqqqqqqqqqqqqqqqqqqqqqqqqqqqqqqq"
};
