/* XPM */
static char *_8457_86e3cc0341887b95b8fc1ebde50b6001ea7c033a2ae64c91fc9cb72fa17912e6[] = {
/* columns rows colors chars-per-pixel */
"64 64 31 1 ",
"  c #090A14",
". c #151515",
"X c #1B1B1B",
"o c #2A1612",
"O c #251817",
"+ c #371A17",
"@ c #3B1E18",
"# c #36211E",
"$ c #38201C",
"% c #152134",
"& c #222222",
"* c #232323",
"= c #382A28",
"- c gray20",
"; c #4C2D1F",
": c #43322F",
"> c #634500",
", c #564238",
"< c #1A2B43",
"1 c #253A5E",
"2 c #2D3E72",
"3 c #484848",
"4 c #715A42",
"5 c #F1A473",
"6 c gray69",
"7 c #FFB492",
"8 c #F3BFA8",
"9 c #E4C5B7",
"0 c #C3C3C3",
"q c #EBEDE9",
"w c #ebe6ce",
/* pixels */
"wwwwwwwwwwwwwwwwwwwwwwwwwwwwwwwwwwwwwwwwwwwwwwwwwwwwwwwwwwwwwwww",
"wwwwwwwwwwwwwwwwwwwwwwwwwwwwwwwwwwwwwwwwwwwwwwwwwwwwwwwwwwwwwwww",
"wwwwwwwwwwwwwwwwwwwwwwwwwwwwwwwwwwwwwwwwwwwwwwwwwwwwwwwwwwwwwwww",
"wwwwwwwwwwwwwwwwwwwwwwwwwwwwwwwwwwwwwwwwwwwwwwwwwwwwwwwwwwwwwwww",
"wwwwwwwwwwwwwwwwwwwwwwwwwwwwwwwwwwwwwwwwwwwwwwwwwwwwwwwwwwwwwwww",
"wwwwwwwwwwwwwwwwwwwwwwwwwwwwwwwwwwwwwwwwwwwwwwwwwwwwwwwwwwwwwwww",
"wwwwwwwwwwwwwwwwwwwwwwwwwwwwwwwwwwwwwwwwwwwwwwwwwwwwwwwwwwwwwwww",
"wwwwwwwwwwwwwwwwwwwwwwwwwwwwwwwwwwwwOwwwwwwwwwwwwwwwwwwwwwwwwwww",
"wwwwwwwwwwwwwwwwwwwwwwwwwwwwwwwwwwwwwOwwwwwwwwwwwwwwwwwwwwwwwwww",
"wwwwwwwwwwwwwwwwwwwwwwwwwwwwwwwwwwwwO@Owwwwwwwwwwwwwwwwwwwwwwwww",
"wwwwwwwwwwwwwwwwwwwwwwwwwwwwwwwwwwwO@@Owwwwwwwwwwwwwwwwwwwwwwwww",
"wwwwwwwwwwwwwwwwwwwwwwwwwwOOOOOOOOO;;@Owwwwwwwwwwwwwwwwwwwwwwwww",
"wwwwwwwwwwwwwwwwwwwwwwwwOO####;;;;;;;@OOOwwwwwwwwwwwwwwwwwwwwwww",
"wwwwwwwwwwwwwwwwwwwwwwwO##@@;;;;;;@@@@@@OOOOwwwwwwwwwwwwwwwwwwww",
"wwwwwwwwwwwwwwwwwwwwwwO##@@;;;;@@@@@$$OO####Owwwwwwwwwwwwwwwwwww",
"wwwwwwwwwwwwwwwwwwwwwO##@@@;@@@@@@@$OO###@@##Owwwwwwwwwwwwwwwwww",
"wwwwwwwwwwwwwwwwwwwwO##@@@@@@@@@@@$O####@;;@@$Owwwwwwwwwwwwwwwww",
"wwwwwwwwwwwwwwwwwwwO##@@@;@@@@@@@@O##@;;;;;;;@Owwwwwwwwwwwwwwwww",
"wwwwwwwwwwwwwwwwwwO##@@@;;@@@;@@@O##@;;;;@;@;;@Owwwwwwwwwwwwwwww",
"wwwwwwwwwwwwwwwwwwO#@@@;;@@@;;@$O##@;;@;;@;@;@$Owwwwwwwwwwwwwwww",
"wwwwwwwwwwwwwwwwwO#@@@;;@@@;;@$O##@;;@@;@$@@@@$Owwwwwwwwwwwwwwww",
"wwwwwwwwwwwwwwwwwO#@@@;@@@;;@@$O#@@;@$@;@$@$@@$Owwwwwwwwwwwwwwww",
"wwwwwwwwwwwwwwwwwO#@@;;@@@;;@$O#@@;;@$@@@$@$@@$Owwwwwwwwwwwwwwww",
"wwwwwwwwwwwwwwwwwO#@@;;@@;;@@$O#@@;;@$$@$O$$@$$Owwwwwwwwwwwwwwww",
"wwwwwwwwwwwwwwwwwO#@;;@@@;;@@O#@@;;@$O$$$O$$$$Owwwwwwwwwwwwwwwww",
"wwwwwwwwwwwwwwwwwO#@;;@@@;;@$O#@@;;@$O$$OO$O$$Owwwwwwwwwwwwwwwww",
"wwwwwwwwwwwwwwwwwO#@;;@@@;@$$O#@@;;@O9OO9O$O$Owwwwwwwwwwwwwwwwww",
"wwwwwwwwwwwwwwwwwO#@;;@@@@$>>O#@;;@O>>>788OO$Owwwwwwwwwwwwwwwwww",
"wwwwwwwwwwwwwwwwwO#@;;@@@$>57O#@;;@O88778887Owwwwwwwwwwwwwwwwwww",
"wwwwwwwwwwwwwwwwwO#@;;@@@$>78O#@;;@O8ooo8885wwwwwwwwwwwwwwwwwwww",
"wwwwwwwwwwwwwwwwwwO#;;@@@$ 78O#@;@O+oo==o885wwwwwwwwwwwwwwwwwwww",
"wwwwwwwwwwwwwwwwwwO#@;@@@$ 58O#@;@O+00=:7885wwwwwwwwwwwwwwwwwwww",
"wwwwwwwwwwwwwwwwwwO##@@@@@$ 5O#@;@O+0q,=7885wwwwwwwwwwwwwwwwwwww",
"wwwwwwwwwwwwwwwwwwO##@@@;@@$ O#@;@O+0q:=7995wwwwwwwwwwwwwwwwwwww",
"wwwwwwwwwwwwwwwwwwO###@@;@@@$O#@;@O88q4489985wwwwwwwwwwwwwwwwwww",
"wwwwwwwwwwwwwwwwwwO####@;;@@$O#@;@O8889999985wwwwwwwwwwwwwwwwwww",
"wwwwwwwwwwwwwwwwwwwO###@@;;@$O#@;@O8888999975wwwwwwwwwwwwwwwwwww",
"wwwwwwwwwwwwwwwwwwwwO##@@;;@$OO@;@O888889975wwwwwwwwwwwwwwwwwwww",
"wwwwwwwwwwwwwwwwwwwwO###@@;;$O7O@O888888755wwwwwwwwwwwwwwwwwwwww",
"wwwwwwwwwwwwwwwwwwwwO###@@;;$O7O@O77775555wwwwwwwwwwwwwwwwwwwwww",
"wwwwwwwwwwwwwwwwwwwwO###@@;;$O5O@O555555wwwwwwwwwwwwwwwwwwwwwwww",
"wwwwwwwwwwwwwwwwwwwwwO##@@;;@O..O....8.wwwwwwwwwwwwwwwwwwwwwwwww",
"wwwwwwwwwwwwwwwwwwwwwO##@@;@O899.***.88.wwwwwwwwwwwwwwwwwwwwwwww",
"wwwwwwwwwwwwwwwwwwwwwO##@;@@O8999.*-3..-.wwwwwwwwwwwwwwwwwwwwwww",
"wwwwwwwwwwwwwwwwwwwwwwO##@@O88985.---333.wwwwwwwwwwwwwwwwwwwwwww",
"wwwwwwwwwwwwwwwwwwwwwwwO##@O89859.-3--3-.wwwwwwwwwwwwwwwwwwwwwww",
"wwwwwwwwwwwwwwwwwwwwwwwwO#@O8985.*--333.wwwwwwwwwwwwwwwwwwwwwwww",
"wwwwwwwwwwwwwwwwwwwwwwwwwOO58985**-3--*wwwwwwwwwwwwwwwwwwwwwwwww",
"wwwwwwwwwwwwwwwwwwwwwwwwwww58985**--33.wwwwwwwwwwwwwwwwwwwwwwwww",
"wwwwwwwwwwwwwwwwwwwwwwwwwww589885**---.wwwwwwwwwwwwwwwwwwwwwwwww",
"wwwwwwwwwwwwwwwwwwwwwwwwwww589985***-.%wwwwwwwwwwwwwwwwwwwwwwwww",
"wwwwwwwwwwwwwwwwwwwwwwwwwww578875.**.1%wwwwwwwwwwwwwwwwwwwwwwwww",
"wwwwwwwwwwwwwwwwwwwwwwwwwwww5555<1..11%wwwwwwwwwwwwwwwwwwwwwwwww",
"wwwwwwwwwwwwwwwwwwwwwwwwwwwww%<<<12%12%wwwwwwwwwwwwwwwwwwwwwwwww",
"wwwwwwwwwwwwwwwwwwwwwwwwwwwww%<<112%12%wwwwwwwwwwwwwwwwwwwwwwwww",
"wwwwwwwwwwwwwwwwwwwwwwwwwwwww%<<12%<2%wwwwwwwwwwwwwwwwwwwwwwwwww",
"wwwwwwwwwwwwwwwwwwwwwwwwwwwww%<<11%<1%wwwwwwwwwwwwwwwwwwwwwwwwww",
"wwwwwwwwwwwwwwwwwwwwwwwwwwwww%<<<1%<1%wwwwwwwwwwwwwwwwwwwwwwwwww",
"wwwwwwwwwwwwwwwwwwwwwwwwwwwww%%%%%%%%%wwwwwwwwwwwwwwwwwwwwwwwwww",
"wwwwwwwwwwwwwwwwwwwwwwwwwwwww X&&& && wwwwwwwwwwwwwwwwwwwwwwwwww",
"wwwwwwwwwwwwwwwwwwwwwwwwwwwww XX&6q 6q wwwwwwwwwwwwwwwwwwwwwwwww",
"wwwwwwwwwwwwwwwwwwwwwwwwwwwww          wwwwwwwwwwwwwwwwwwwwwwwww",
"wwwwwwwwwwwwwwwwwwwwwwwwwwwwwwwwwwwwwwwwwwwwwwwwwwwwwwwwwwwwwwww",
"wwwwwwwwwwwwwwwwwwwwwwwwwwwwwwwwwwwwwwwwwwwwwwwwwwwwwwwwwwwwwwww"
};
