/* XPM */
static char *_eb785bcd02e49cdb10c0e904371a7b0ya2bbEXdjOKDOEgz[] = {
/* columns rows colors chars-per-pixel */
"64 64 14 1 ",
"  c #85624B",
". c #907154",
"X c #9A7A5B",
"o c #9C7A5B",
"O c #A68362",
"+ c #B08D6B",
"@ c #B2906E",
"# c #B49271",
"$ c #BA9775",
"% c #BC9A77",
"& c #BD9B7B",
"* c #BE9C7A",
"= c #C9A67C",
"- c #C2A080",
/* pixels */
"====-==-===&===&====-==-===&===&====-==-===&===&====-==-===&===&",
"=---&&----&+&&&O=---&&----&+&&&O=---&&----&+&&&O=---&&----&+&&&O",
"=$+=&$$$$$-$+&+.=$+=&$$$$$-$+&+.=$+=&$$$$$-$+&+.=$+=&$$$$$-$+&+.",
"=-$$#$$++---&-$.=-$$#$$++---&-$.=-$$#$$++---&-$.=-$$#$$++---&-$.",
"=$+**+*$$##$$@@X=$+**+*$$##$$@@X=$+**+*$$##$$@@X=$+**+*$$##$$@@X",
"=-*#O*=**$+O%%@X=-*#O*=**$+O%%@X=-*#O*=**$+O%%@X=-*#O*=**$+O%%@X",
"OOOO.OOOOOOOOOO OOOO.OOOOOOOOOO OOOO.OOOOOOOOOO OOOO.OOOOOOOOOO ",
"                                                                ",
"==-=---+===-======-=---+===-======-=---+===-======-=---+===-====",
"--$-*$$o=--$$-----$-*$$o=--$$-----$-*$$o=--$$-----$-*$$o=--$$---",
"$$*##++.-$$--$++$$*##++.-$$--$++$$*##++.-$$--$++$$*##++.-$$--$++",
"$-=-$$+X---$$*=*$-=-$$+X---$$*=*$-=-$$+X---$$*=*$-=-$$+X---$$*=*",
"@@$$+$+X-%%@@$--@@$$+$+X-%%@@$--@@$$+$+X-%%@@$--@@$$+$+X-%%@@$--",
"=$$+$$$.-%+%%%+$=$$+$$$.-%+%%%+$=$$+$$$.-%+%%%+$=$$+$$$.-%+%%%+$",
"OOOOOOO OO.OOOOOOOOOOOO OO.OOOOOOOOOOOO OO.OOOOOOOOOOOO OO.OOOOO",
"                                                                ",
"====-==-===&===&====-==-===&===&====-==-===&===&====-==-===&===&",
"=---&&----&+&&&O=---&&----&+&&&O=---&&----&+&&&O=---&&----&+&&&O",
"=$+=&$$$$$-$+&+.=$+=&$$$$$-$+&+.=$+=&$$$$$-$+&+.=$+=&$$$$$-$+&+.",
"=-$$#$$++---&-$.=-$$#$$++---&-$.=-$$#$$++---&-$.=-$$#$$++---&-$.",
"=$+**+*$$##$$@@X=$+**+*$$##$$@@X=$+**+*$$##$$@@X=$+**+*$$##$$@@X",
"=-*#O*=**$+O%%@X=-*#O*=**$+O%%@X=-*#O*=**$+O%%@X=-*#O*=**$+O%%@X",
"OOOO.OOOOOOOOOO OOOO.OOOOOOOOOO OOOO.OOOOOOOOOO OOOO.OOOOOOOOOO ",
"                                                                ",
"==-=---+===-======-=---+===-======-=---+===-======-=---+===-====",
"--$-*$$o=--$$-----$-*$$o=--$$-----$-*$$o=--$$-----$-*$$o=--$$---",
"$$*##++.-$$--$++$$*##++.-$$--$++$$*##++.-$$--$++$$*##++.-$$--$++",
"$-=-$$+X---$$*=*$-=-$$+X---$$*=*$-=-$$+X---$$*=*$-=-$$+X---$$*=*",
"@@$$+$+X-%%@@$--@@$$+$+X-%%@@$--@@$$+$+X-%%@@$--@@$$+$+X-%%@@$--",
"=$$+$$$.-%+%%%+$=$$+$$$.-%+%%%+$=$$+$$$.-%+%%%+$=$$+$$$.-%+%%%+$",
"OOOOOOO OO.OOOOOOOOOOOO OO.OOOOOOOOOOOO OO.OOOOOOOOOOOO OO.OOOOO",
"                                                                ",
"====-==-===&===&====-==-===&===&====-==-===&===&====-==-===&===&",
"=---&&----&+&&&O=---&&----&+&&&O=---&&----&+&&&O=---&&----&+&&&O",
"=$+=&$$$$$-$+&+.=$+=&$$$$$-$+&+.=$+=&$$$$$-$+&+.=$+=&$$$$$-$+&+.",
"=-$$#$$++---&-$.=-$$#$$++---&-$.=-$$#$$++---&-$.=-$$#$$++---&-$.",
"=$+**+*$$##$$@@X=$+**+*$$##$$@@X=$+**+*$$##$$@@X=$+**+*$$##$$@@X",
"=-*#O*=**$+O%%@X=-*#O*=**$+O%%@X=-*#O*=**$+O%%@X=-*#O*=**$+O%%@X",
"OOOO.OOOOOOOOOO OOOO.OOOOOOOOOO OOOO.OOOOOOOOOO OOOO.OOOOOOOOOO ",
"                                                                ",
"==-=---+===-======-=---+===-======-=---+===-======-=---+===-====",
"--$-*$$o=--$$-----$-*$$o=--$$-----$-*$$o=--$$-----$-*$$o=--$$---",
"$$*##++.-$$--$++$$*##++.-$$--$++$$*##++.-$$--$++$$*##++.-$$--$++",
"$-=-$$+X---$$*=*$-=-$$+X---$$*=*$-=-$$+X---$$*=*$-=-$$+X---$$*=*",
"@@$$+$+X-%%@@$--@@$$+$+X-%%@@$--@@$$+$+X-%%@@$--@@$$+$+X-%%@@$--",
"=$$+$$$.-%+%%%+$=$$+$$$.-%+%%%+$=$$+$$$.-%+%%%+$=$$+$$$.-%+%%%+$",
"OOOOOOO OO.OOOOOOOOOOOO OO.OOOOOOOOOOOO OO.OOOOOOOOOOOO OO.OOOOO",
"                                                                ",
"====-==-===&===&====-==-===&===&====-==-===&===&====-==-===&===&",
"=---&&----&+&&&O=---&&----&+&&&O=---&&----&+&&&O=---&&----&+&&&O",
"=$+=&$$$$$-$+&+.=$+=&$$$$$-$+&+.=$+=&$$$$$-$+&+.=$+=&$$$$$-$+&+.",
"=-$$#$$++---&-$.=-$$#$$++---&-$.=-$$#$$++---&-$.=-$$#$$++---&-$.",
"=$+**+*$$##$$@@X=$+**+*$$##$$@@X=$+**+*$$##$$@@X=$+**+*$$##$$@@X",
"=-*#O*=**$+O%%@X=-*#O*=**$+O%%@X=-*#O*=**$+O%%@X=-*#O*=**$+O%%@X",
"OOOO.OOOOOOOOOO OOOO.OOOOOOOOOO OOOO.OOOOOOOOOO OOOO.OOOOOOOOOO ",
"                                                                ",
"==-=---+===-======-=---+===-======-=---+===-======-=---+===-====",
"--$-*$$o=--$$-----$-*$$o=--$$-----$-*$$o=--$$-----$-*$$o=--$$---",
"$$*##++.-$$--$++$$*##++.-$$--$++$$*##++.-$$--$++$$*##++.-$$--$++",
"$-=-$$+X---$$*=*$-=-$$+X---$$*=*$-=-$$+X---$$*=*$-=-$$+X---$$*=*",
"@@$$+$+X-%%@@$--@@$$+$+X-%%@@$--@@$$+$+X-%%@@$--@@$$+$+X-%%@@$--",
"=$$+$$$.-%+%%%+$=$$+$$$.-%+%%%+$=$$+$$$.-%+%%%+$=$$+$$$.-%+%%%+$",
"OOOOOOO OO.OOOOOOOOOOOO OO.OOOOOOOOOOOO OO.OOOOOOOOOOOO OO.OOOOO",
"                                                                "
};
